<?xml version="1.0" encoding="UTF-8"?>
<svg id="Capa_2" data-name="Capa 2" xmlns="http://www.w3.org/2000/svg" viewBox="0 0 17.56 20">
  <defs>
    <style>
      .cls-1 {
        fill: #0ad;
      }

      .cls-1, .cls-2 {
        fill-rule: evenodd;
      }

      .cls-2 {
        fill: #0da;
      }
    </style>
  </defs>
  <g id="Capa_1-2" data-name="Capa 1">
    <g>
      <g>
        <path class="cls-2" d="M10.89,1.02c.31,0,.56,.24,.55,.54,0,.3-.25,.54-.55,.55-.31,0-.55-.24-.55-.54,0-.31,.24-.54,.55-.54Z"/>
        <path class="cls-2" d="M6.27,3.94c0-.81,0-1.61,0-2.42,0-.24,.16-.43,.37-.48,.25-.06,.49,.05,.6,.28,.03,.07,.04,.15,.04,.22,0,1.61,0,3.21,0,4.82,0,.31-.22,.53-.51,.53-.29,0-.5-.22-.5-.53,0-.8,0-1.61,0-2.41Z"/>
        <path class="cls-2" d="M12.38,3.97c0-.39,0-.79,0-1.18,0-.32,.21-.54,.5-.54,.3,0,.52,.22,.52,.54,0,.79,0,1.59,0,2.38,0,.32-.23,.55-.52,.55-.3,0-.5-.23-.5-.55,0-.4,0-.8,0-1.2Z"/>
        <path class="cls-2" d="M11.37,5.27c0,.4,0,.81,0,1.21,0,.3-.23,.53-.51,.53-.29,0-.51-.23-.51-.53,0-.8,0-1.61,0-2.41,0-.32,.21-.53,.51-.53,.3,0,.51,.22,.51,.54,0,.4,0,.8,0,1.2Z"/>
        <path class="cls-2" d="M9.32,6.5c0,.4,0,.81,0,1.21,0,.3-.21,.51-.5,.51-.29,0-.52-.22-.52-.51,0-.82,0-1.63,0-2.45,0-.3,.24-.53,.52-.52,.28,0,.5,.23,.5,.53,0,.41,0,.82,0,1.22Z"/>
        <path class="cls-2" d="M9.32,1.73c0,.4,0,.81,0,1.21,0,.31-.2,.52-.49,.52-.31,0-.53-.2-.53-.52,0-.81,0-1.62,0-2.44,0-.3,.23-.52,.52-.51,.29,0,.5,.22,.5,.52,0,.4,0,.81,0,1.21Z"/>
        <path class="cls-2" d="M5.17,4.8c0,.16,0,.31,0,.47,0,.29-.2,.5-.48,.51-.3,.01-.53-.18-.54-.48-.01-.34-.01-.68,0-1.02,.01-.28,.26-.49,.54-.47,.28,.01,.48,.23,.49,.51,0,.16,0,.32,0,.48Z"/>
        <path class="cls-2" d="M4.68,3.33c-.3,0-.54-.24-.53-.54,0-.31,.25-.55,.57-.54,.29,0,.54,.25,.53,.55,0,.31-.25,.54-.57,.54Z"/>
        <path class="cls-2" d="M15.03,4.62c-.31,0-.55-.24-.54-.55,0-.3,.25-.54,.56-.54,.3,0,.55,.25,.54,.55,0,.3-.25,.54-.56,.53Z"/>
        <path class="cls-2" d="M2.58,4.49c-.31,0-.54-.24-.54-.55,0-.31,.24-.54,.55-.54,.31,0,.54,.24,.54,.55,0,.31-.23,.54-.55,.54Z"/>
      </g>
      <g>
        <path class="cls-1" d="M11.37,13.54c0,1.58,0,3.17,0,4.75,0,.33-.21,.55-.51,.55-.3,0-.51-.23-.51-.55,0-3.17,0-6.35,0-9.52,0-.28,.15-.48,.41-.53,.23-.05,.47,.07,.57,.3,.03,.08,.04,.16,.04,.24,0,1.59,0,3.18,0,4.77Z"/>
        <path class="cls-1" d="M12.38,11.28c0-1.2,0-2.4,0-3.61,0-.22,.09-.39,.3-.48,.2-.09,.4-.06,.56,.09,.13,.11,.17,.26,.17,.42,0,.52,0,1.04,0,1.56,0,1.87,0,3.74,0,5.61,0,.34-.2,.57-.51,.57-.28,0-.51-.21-.52-.49,0-.27,0-.55,0-.82,0-.95,0-1.9,0-2.85Z"/>
        <path class="cls-1" d="M15.59,13.58c0,.78,0,1.56,0,2.34,0,.38-.34,.63-.68,.51-.19-.07-.31-.21-.34-.41,0-.05,0-.1,0-.15,0-1.54,0-3.08,0-4.62,0-.34,.19-.57,.49-.58,.31-.01,.54,.22,.54,.55,0,.79,0,1.57,0,2.36Z"/>
        <path class="cls-1" d="M17.56,7.59c0,.79,0,1.58,0,2.37,0,.27-.19,.48-.45,.52-.24,.03-.49-.12-.56-.37-.01-.05-.02-.11-.02-.16,0-1.57,0-3.15,0-4.72,0-.42,.41-.67,.76-.47,.18,.1,.27,.26,.27,.47,0,.79,0,1.58,0,2.37Z"/>
        <path class="cls-1" d="M15.59,7.58c0,.41,0,.82,0,1.22,0,.27-.19,.48-.44,.52-.24,.04-.48-.11-.56-.34-.02-.06-.03-.13-.03-.2,0-.79,0-1.59,0-2.38,0-.37,.28-.61,.62-.54,.24,.05,.41,.26,.41,.53,0,.4,0,.8,0,1.2Z"/>
        <path class="cls-1" d="M17.56,13.5c0,.4,0,.8,0,1.2,0,.31-.22,.54-.51,.54s-.51-.22-.51-.53c0-.81,0-1.62,0-2.43,0-.3,.23-.52,.52-.52,.29,0,.51,.23,.51,.53,0,.4,0,.81,0,1.21Z"/>
        <path class="cls-1" d="M12.92,17.75c-.31,0-.54-.24-.54-.55,0-.31,.24-.54,.55-.54,.31,0,.54,.24,.54,.55,0,.3-.25,.54-.55,.54Z"/>
      </g>
      <g>
        <path class="cls-1" d="M3.07,10c0,1.2,0,2.4,0,3.59,0,.39-.34,.65-.69,.52-.2-.07-.33-.24-.34-.46,0-.02,0-.04,0-.07,0-2.4,0-4.8,0-7.2,0-.41,.35-.66,.71-.52,.2,.08,.32,.27,.32,.51,0,.85,0,1.7,0,2.54v1.06Z"/>
        <path class="cls-1" d="M7.28,12.38c0,1.2,0,2.4,0,3.61,0,.37-.29,.61-.64,.53-.2-.05-.36-.23-.38-.44,0-.03,0-.06,0-.09,0-2.4,0-4.81,0-7.21,0-.22,.08-.39,.29-.49,.19-.09,.38-.07,.54,.06,.14,.11,.19,.26,.19,.44,0,1.2,0,2.4,0,3.61Z"/>
        <path class="cls-1" d="M1.03,12.34c0,.78,0,1.56,0,2.34,0,.3-.16,.5-.43,.55-.31,.05-.59-.17-.6-.48,0-.19,0-.38,0-.57C0,12.78,0,11.38,0,9.98c0-.22,.09-.38,.29-.48,.19-.09,.38-.07,.54,.06,.15,.12,.2,.28,.2,.46,0,.73,0,1.46,0,2.19v.12Z"/>
        <path class="cls-1" d="M5.18,14.8c0,.79,0,1.59,0,2.38,0,.23-.16,.44-.37,.49-.23,.06-.48-.04-.59-.24-.05-.08-.07-.17-.07-.27,0-1.57,0-3.15,0-4.72,0-.28,.18-.49,.42-.53,.27-.04,.51,.1,.58,.36,.02,.07,.02,.13,.02,.2,0,.78,0,1.55,0,2.33Z"/>
        <path class="cls-1" d="M9.32,12.35c0,.78,0,1.57,0,2.35,0,.31-.22,.54-.51,.54-.29,0-.51-.23-.51-.55,0-1.57,0-3.14,0-4.71,0-.27,.18-.49,.42-.53,.27-.04,.5,.1,.58,.35,.02,.06,.02,.12,.02,.19,0,.79,0,1.57,0,2.35Z"/>
        <path class="cls-1" d="M1.03,6.36c0,.41,0,.82,0,1.24-.01,.41-.45,.63-.79,.41-.15-.1-.23-.24-.23-.42C0,6.77,0,5.95,0,5.12c0-.28,.23-.5,.51-.51,.27,0,.51,.22,.52,.5,0,.42,0,.83,0,1.25Z"/>
        <path class="cls-1" d="M5.18,8.74c0,.4,0,.8,0,1.2,0,.31-.22,.54-.51,.54-.29,0-.52-.22-.52-.54,0-.8,0-1.6,0-2.41,0-.31,.22-.53,.52-.53,.3,0,.51,.22,.51,.54,0,.4,0,.8,0,1.2Z"/>
        <path class="cls-1" d="M9.32,18.27c0,.4,0,.8,0,1.2,0,.31-.21,.53-.5,.53-.3,0-.52-.22-.52-.53,0-.8,0-1.61,0-2.41,0-.31,.22-.53,.52-.53,.3,0,.5,.22,.5,.53,0,.4,0,.81,0,1.21Z"/>
        <path class="cls-1" d="M2.59,16.46c-.31,0-.54-.24-.54-.55,0-.31,.24-.54,.55-.54,.31,0,.55,.24,.54,.55,0,.31-.24,.54-.55,.54Z"/>
        <path class="cls-1" d="M6.19,18.29c0-.31,.25-.54,.55-.54,.3,0,.54,.25,.54,.56,0,.31-.25,.54-.55,.54-.31,0-.54-.24-.53-.56Z"/>
      </g>
    </g>
  </g>
</svg>